<?xml version="1.0" standalone="no"?>
<!DOCTYPE svg PUBLIC "-//W3C//DTD SVG 20010904//EN"
 "http://www.w3.org/TR/2001/REC-SVG-20010904/DTD/svg10.dtd">
<svg version="1.0" xmlns="http://www.w3.org/2000/svg"
 width="1259.000000pt" height="345.000000pt" viewBox="0 0 1259.000000 345.000000"
 preserveAspectRatio="xMidYMid meet">

<g transform="translate(0.000000,345.000000) scale(0.100000,-0.100000)"
fill="#ffffff" stroke="none">
<path d="M1540 3414 c-137 -27 -250 -74 -356 -150 -105 -74 -134 -122 -96
-157 27 -25 65 -21 93 9 58 62 211 144 329 175 61 17 252 17 320 0 84 -20 228
-94 293 -151 79 -68 137 -68 137 1 0 65 -215 207 -385 254 -59 16 -284 29
-335 19z"/>
<path d="M1540 3195 c-89 -20 -199 -76 -262 -134 -49 -45 -52 -51 -43 -76 6
-17 21 -32 38 -38 24 -8 34 -4 70 25 200 162 469 162 650 1 88 -79 167 -1 81
80 -129 122 -357 182 -534 142z"/>
<path d="M1553 2976 c-96 -31 -189 -107 -176 -144 9 -25 34 -52 48 -52 7 0 37
16 66 37 57 39 123 63 174 63 53 0 132 -29 180 -65 51 -39 74 -43 98 -17 41
45 -2 106 -110 158 -47 24 -72 29 -147 31 -57 2 -107 -2 -133 -11z"/>
<path d="M4911 2789 c-253 -54 -466 -188 -616 -387 -359 -474 -243 -1146 254
-1476 157 -105 313 -155 504 -163 252 -11 437 39 639 174 104 70 292 273 272
293 -5 5 -70 54 -144 108 l-134 99 -43 -52 c-170 -209 -420 -302 -668 -250
-89 19 -216 80 -281 136 -167 144 -252 338 -241 549 16 282 202 514 482 599
78 25 221 30 313 12 138 -27 286 -118 378 -231 31 -39 58 -70 61 -70 3 0 70
48 149 106 l145 106 -47 57 c-128 152 -226 234 -372 306 -190 94 -449 128
-651 84z"/>
<path d="M1595 2761 c-48 -22 -69 -44 -90 -94 -32 -78 -6 -166 63 -212 72 -48
148 -45 208 7 48 42 67 83 67 145 0 68 -31 115 -97 148 -59 30 -97 31 -151 6z"/>
<path d="M9782 2769 c-189 -32 -353 -150 -432 -313 -21 -45 -46 -104 -54 -133
-14 -50 -14 -51 7 -57 56 -14 309 -66 321 -66 7 0 18 17 24 38 64 212 330 250
440 62 23 -38 27 -57 27 -122 0 -69 -3 -80 -31 -121 -17 -24 -205 -247 -418
-495 l-386 -452 0 -160 0 -160 600 0 600 0 0 180 0 180 -339 2 -339 3 289 340
c364 427 389 472 389 699 0 107 -16 171 -68 269 -117 225 -372 349 -630 306z"/>
<path d="M7283 2738 c2 -7 136 -353 296 -768 161 -415 329 -851 374 -968 l82
-212 169 2 170 3 84 220 c47 121 216 561 377 978 l292 757 -197 0 -197 0 -150
-387 c-83 -214 -201 -520 -263 -680 -62 -161 -115 -291 -119 -289 -3 3 -123
308 -266 680 l-260 676 -199 0 c-154 0 -197 -3 -193 -12z"/>
<path d="M10732 2718 c13 -18 165 -230 337 -471 285 -399 312 -439 298 -455
-8 -9 -175 -241 -371 -515 l-356 -497 227 2 227 3 252 350 c138 192 255 350
260 352 5 1 122 -156 260 -350 l250 -352 226 -3 227 -2 -370 516 -369 517 312
436 c171 240 323 451 336 469 l24 32 -225 0 -225 0 -222 -311 -223 -310 -51
72 c-28 39 -128 178 -222 308 l-170 236 -229 3 -228 2 25 -32z"/>
<path d="M850 2286 c-78 -18 -117 -37 -181 -89 -69 -56 -114 -137 -136 -246
l-16 -81 -237 0 c-217 0 -238 -2 -253 -18 -24 -26 -25 -283 -2 -306 19 -18 35
-21 240 -41 88 -9 161 -18 163 -20 3 -2 1 -20 -2 -39 -5 -24 -17 -42 -39 -57
-101 -69 -172 -169 -195 -274 -26 -114 -43 -411 -40 -687 l3 -276 31 -38 c65
-80 58 -79 315 -82 217 -3 233 -2 274 18 63 30 97 87 103 172 l5 68 822 0 822
0 6 -60 c10 -93 43 -147 109 -181 33 -17 61 -19 258 -19 197 0 225 2 258 19
50 26 78 58 97 110 35 99 5 865 -39 987 -36 103 -92 178 -171 230 -43 29 -54
42 -58 72 -4 20 -5 37 -4 38 1 1 85 10 187 19 114 11 194 23 208 31 21 14 22
20 22 157 0 99 -4 148 -12 160 -12 15 -42 17 -252 19 l-239 3 -18 83 c-23 104
-59 171 -125 231 -64 59 -122 87 -206 101 -96 15 -1627 12 -1698 -4z m1729
-123 c28 -9 68 -31 89 -48 67 -58 85 -108 142 -383 28 -140 54 -260 57 -268 4
-12 -164 -14 -1156 -14 -758 0 -1161 3 -1161 10 0 31 113 537 125 563 20 41
42 66 86 100 76 58 43 56 940 56 742 1 832 -1 878 -16z m-1724 -1059 c121 -25
233 -53 250 -63 112 -65 92 -225 -36 -296 l-54 -30 -202 -3 c-254 -4 -299 4
-358 62 -52 52 -69 100 -63 176 8 114 93 200 197 200 25 0 145 -21 266 -46z
m2117 9 c144 -103 111 -334 -54 -389 -40 -13 -86 -15 -266 -12 l-217 3 -53 29
c-53 30 -93 73 -106 113 -22 68 0 145 50 178 15 9 129 39 253 66 271 58 327
60 393 12z m-872 -648 l0 -65 -395 0 -395 0 0 65 0 65 395 0 395 0 0 -65z"/>
<path d="M6220 1420 l0 -160 430 0 430 0 0 160 0 160 -430 0 -430 0 0 -160z"/>
</g>
</svg>
