<svg width="32" height="32" viewBox="0 0 32 32" fill="none" xmlns="http://www.w3.org/2000/svg">
<circle cx="16" cy="16" r="15" fill="#E97451" stroke="white" stroke-width="2"/>
<g clip-path="url(#clip0_65_18518)"> 
<path d="M22.92 10.01C22.72 9.42 22.16 9 21.5 9H10.5C9.84 9 9.29 9.42 9.08 10.01L7.11 15.68C7.04 15.89 7 16.11 7 16.34V23.5C7 24.33 7.67 25 8.5 25C9.33 25 10 24.33 10 23.5V23H22V23.5C22 24.32 22.67 25 23.5 25C24.32 25 25 24.33 25 23.5V16.34C25 16.12 24.96 15.89 24.89 15.68L22.92 10.01ZM10.5 20C9.67 20 9 19.33 9 18.5C9 17.67 9.67 17 10.5 17C11.33 17 12 17.67 12 18.5C12 19.33 11.33 20 10.5 20ZM21.5 20C20.67 20 20 19.33 20 18.5C20 17.67 20.67 17 21.5 17C22.33 17 23 17.67 23 18.5C23 19.33 22.33 20 21.5 20ZM9 15L10.27 11.18C10.41 10.78 10.79 10.5 11.22 10.5H20.78C21.21 10.5 21.59 10.78 21.73 11.18L23 15H9Z" fill="white"/>
</g>
<defs>
<clipPath id="clip0_65_18518">
<rect width="24" height="24" fill="white" transform="translate(4 4)"/>
</clipPath>
</defs>
</svg>
