<svg width="32" height="32" viewBox="0 0 32 32" fill="none" xmlns="http://www.w3.org/2000/svg">
<circle cx="16" cy="16" r="15" fill="#979797" stroke="white" stroke-width="2"/>
<g clip-path="url(#clip0_520_29620)">
<path d="M16.0001 15C14.9001 15 14.0001 15.9 14.0001 17C14.0001 18.1 14.9001 19 16.0001 19C17.1001 19 18.0001 18.1 18.0001 17C18.0001 15.9 17.1001 15 16.0001 15ZM22.0001 17C22.0001 13.44 18.8901 10.6 15.2501 11.05C12.6301 11.37 10.4701 13.46 10.0701 16.07C9.74005 18.22 10.5601 20.18 12.0001 21.47C12.4801 21.9 13.2301 21.8 13.5601 21.24L13.5701 21.23C13.8101 20.81 13.7101 20.3 13.3501 19.97C12.3201 19.04 11.7601 17.6 12.1301 16.03C12.4601 14.61 13.6101 13.46 15.0301 13.12C17.6501 12.49 20.0001 14.47 20.0001 17C20.0001 18.18 19.4801 19.23 18.6701 19.96C18.3101 20.28 18.2001 20.8 18.4401 21.22L18.4501 21.23C18.7601 21.76 19.4801 21.92 19.9501 21.51C21.2001 20.41 22.0001 18.8 22.0001 17ZM14.8301 7.07001C10.2101 7.59001 6.48005 11.4 6.05005 16.03C5.70005 19.73 7.37005 23.05 10.0701 25.04C10.5501 25.39 11.2301 25.24 11.5301 24.73C11.7801 24.3 11.6701 23.74 11.2701 23.44C8.99005 21.75 7.62005 18.89 8.11005 15.74C8.65005 12.24 11.5701 9.45001 15.0901 9.06001C19.9101 8.51001 24.0001 12.28 24.0001 17C24.0001 19.65 22.7101 21.98 20.7301 23.44C20.3301 23.74 20.2201 24.29 20.4701 24.73C20.7701 25.25 21.4501 25.39 21.9301 25.04C24.4001 23.22 26.0001 20.3 26.0001 17C26.0001 11.09 20.8701 6.38001 14.8301 7.07001Z" fill="white"/>
</g>
<defs>
<clipPath id="clip0_520_29620">
<rect width="24" height="24" fill="white" transform="translate(4 4)"/>
</clipPath>
</defs>
</svg>
