<svg width="32" height="33" viewBox="0 0 32 33" fill="none" xmlns="http://www.w3.org/2000/svg">
<circle cx="16" cy="16.9071" r="15" fill="#17A5D3" stroke="white" stroke-width="2"/>
<g clip-path="url(#clip0_814_12019)">
<path d="M16.0001 15.9071C14.9001 15.9071 14.0001 16.8071 14.0001 17.9071C14.0001 19.0071 14.9001 19.9071 16.0001 19.9071C17.1001 19.9071 18.0001 19.0071 18.0001 17.9071C18.0001 16.8071 17.1001 15.9071 16.0001 15.9071ZM22.0001 17.9071C22.0001 14.3471 18.8901 11.5071 15.2501 11.9571C12.6301 12.2771 10.4701 14.3671 10.0701 16.9771C9.74005 19.1271 10.5601 21.0871 12.0001 22.3771C12.4801 22.8071 13.2301 22.7071 13.5601 22.1471L13.5701 22.1371C13.8101 21.7171 13.7101 21.2071 13.3501 20.8771C12.3201 19.9471 11.7601 18.5071 12.1301 16.9371C12.4601 15.5171 13.6101 14.3671 15.0301 14.0271C17.6501 13.3971 20.0001 15.3771 20.0001 17.9071C20.0001 19.0871 19.4801 20.1371 18.6701 20.8671C18.3101 21.1871 18.2001 21.7071 18.4401 22.1271L18.4501 22.1371C18.7601 22.6671 19.4801 22.8271 19.9501 22.4171C21.2001 21.3171 22.0001 19.7071 22.0001 17.9071ZM14.8301 7.97711C10.2101 8.49711 6.48005 12.3071 6.05005 16.9371C5.70005 20.6371 7.37005 23.9571 10.0701 25.9471C10.5501 26.2971 11.2301 26.1471 11.5301 25.6371C11.7801 25.2071 11.6701 24.6471 11.2701 24.3471C8.99005 22.6571 7.62005 19.7971 8.11005 16.6471C8.65005 13.1471 11.5701 10.3571 15.0901 9.96711C19.9101 9.41711 24.0001 13.1871 24.0001 17.9071C24.0001 20.5571 22.7101 22.8871 20.7301 24.3471C20.3301 24.6471 20.2201 25.1971 20.4701 25.6371C20.7701 26.1571 21.4501 26.2971 21.9301 25.9471C24.4001 24.1271 26.0001 21.2071 26.0001 17.9071C26.0001 11.9971 20.8701 7.28711 14.8301 7.97711Z" fill="white"/>
</g>
<defs>
<clipPath id="clip0_814_12019">
<rect width="24" height="24" fill="white" transform="translate(4 4.9071)"/>
</clipPath>
</defs>
</svg>
