<svg width="52" height="60" viewBox="0 0 52 60" fill="none" xmlns="http://www.w3.org/2000/svg">
<g filter="url(#filter0_f_236_4057)">
<ellipse cx="26" cy="53.5" rx="7" ry="2.5" fill="black" fill-opacity="0.2"/>
</g>
<g filter="url(#filter1_d_236_4057)">
<path fill-rule="evenodd" clip-rule="evenodd" d="M26 4C37.598 4 47 13.402 47 25C47 33.8926 41.4727 41.4942 33.6663 44.5567L27.1961 53.4007C27.0612 53.5858 26.8821 53.7369 26.6739 53.8412C26.4657 53.9455 26.2346 54 26 54C25.7654 54 25.5343 53.9455 25.3261 53.8412C25.1179 53.7369 24.9388 53.5858 24.8039 53.4007L18.3337 44.5567C10.5273 41.4941 5 33.8926 5 25C5 13.402 14.402 4 26 4Z" fill="white"/>
</g>
<path d="M43 25C43 15.6112 35.3888 8 26 8C16.6112 8 9 15.6112 9 25C9 34.3888 16.6112 42 26 42C35.3888 42 43 34.3888 43 25Z" fill="#979797"/>
<g clip-path="url(#clip0_236_4057)">
<path d="M26.0001 23.9999C24.9001 23.9999 24.0001 24.8999 24.0001 25.9999C24.0001 27.0999 24.9001 27.9999 26.0001 27.9999C27.1001 27.9999 28.0001 27.0999 28.0001 25.9999C28.0001 24.8999 27.1001 23.9999 26.0001 23.9999ZM32.0001 25.9999C32.0001 22.4399 28.8901 19.5999 25.2501 20.0499C22.6301 20.3699 20.4701 22.4599 20.0701 25.0699C19.7401 27.2199 20.5601 29.1799 22.0001 30.4699C22.4801 30.8999 23.2301 30.7999 23.5601 30.2399L23.5701 30.2299C23.8101 29.8099 23.7101 29.2999 23.3501 28.9699C22.3201 28.0399 21.7601 26.5999 22.1301 25.0299C22.4601 23.6099 23.6101 22.4599 25.0301 22.1199C27.6501 21.4899 30.0001 23.4699 30.0001 25.9999C30.0001 27.1799 29.4801 28.2299 28.6701 28.9599C28.3101 29.2799 28.2001 29.7999 28.4401 30.2199L28.4501 30.2299C28.7601 30.7599 29.4801 30.9199 29.9501 30.5099C31.2001 29.4099 32.0001 27.7999 32.0001 25.9999ZM24.8301 16.0699C20.2101 16.5899 16.4801 20.3999 16.0501 25.0299C15.7001 28.7299 17.3701 32.0499 20.0701 34.0399C20.5501 34.3899 21.2301 34.2399 21.5301 33.7299C21.7801 33.2999 21.6701 32.7399 21.2701 32.4399C18.9901 30.7499 17.6201 27.8899 18.1101 24.7399C18.6501 21.2399 21.5701 18.4499 25.0901 18.0599C29.9101 17.5099 34.0001 21.2799 34.0001 25.9999C34.0001 28.6499 32.7101 30.9799 30.7301 32.4399C30.3301 32.7399 30.2201 33.2899 30.4701 33.7299C30.7701 34.2499 31.4501 34.3899 31.9301 34.0399C34.4001 32.2199 36.0001 29.2999 36.0001 25.9999C36.0001 20.0899 30.8701 15.3799 24.8301 16.0699Z" fill="white"/>
</g>
<defs>
<filter id="filter0_f_236_4057" x="17" y="49" width="18" height="9" filterUnits="userSpaceOnUse" color-interpolation-filters="sRGB">
<feFlood flood-opacity="0" result="BackgroundImageFix"/>
<feBlend mode="normal" in="SourceGraphic" in2="BackgroundImageFix" result="shape"/>
<feGaussianBlur stdDeviation="1" result="effect1_foregroundBlur_236_4057"/>
</filter>
<filter id="filter1_d_236_4057" x="0" y="0" width="52" height="60" filterUnits="userSpaceOnUse" color-interpolation-filters="sRGB">
<feFlood flood-opacity="0" result="BackgroundImageFix"/>
<feColorMatrix in="SourceAlpha" type="matrix" values="0 0 0 0 0 0 0 0 0 0 0 0 0 0 0 0 0 0 127 0" result="hardAlpha"/>
<feOffset dy="1"/>
<feGaussianBlur stdDeviation="2.5"/>
<feComposite in2="hardAlpha" operator="out"/>
<feColorMatrix type="matrix" values="0 0 0 0 0 0 0 0 0 0 0 0 0 0 0 0 0 0 0.1 0"/>
<feBlend mode="normal" in2="BackgroundImageFix" result="effect1_dropShadow_236_4057"/>
<feBlend mode="normal" in="SourceGraphic" in2="effect1_dropShadow_236_4057" result="shape"/>
</filter>
<clipPath id="clip0_236_4057">
<rect width="24" height="24" fill="white" transform="translate(14 13)"/>
</clipPath>
</defs>
</svg>
